<?xml version="1.0" standalone="no"?>
<!DOCTYPE svg PUBLIC "-//W3C//DTD SVG 1.1//EN" "http://www.w3.org/Graphics/SVG/1.1/DTD/svg11.dtd" >
<svg xmlns="http://www.w3.org/2000/svg" xmlns:xlink="http://www.w3.org/1999/xlink" version="1.1">
<metadata>
Created by FontForge 20170910 at Fri Jan 18 18:04:49 2013
 By Jimmy Wärting
Copyright (c) 2011, Denis Masharov &#60;denis.masharov@gmail.com&#62;, with Reserved Font Names "Kelly", "Kelly Slab".
</metadata>
<defs>
<font id="KellySlab-Regular" horiz-adv-x="1110" >
  <font-face 
    font-family="Kelly Slab"
    font-weight="400"
    font-stretch="normal"
    units-per-em="2048"
    panose-1="2 0 0 0 0 0 0 0 0 0"
    ascent="1638"
    descent="-410"
    x-height="1024"
    cap-height="1536"
    bbox="-20 -512 1833 1919"
    underline-thickness="102"
    underline-position="-204"
    unicode-range="U+000D-E000"
  />
<missing-glyph horiz-adv-x="748" 
d="M68 0v1365h544v-1365h-544zM136 68h408v1229h-408v-1229z" />
    <glyph glyph-name=".notdef" horiz-adv-x="748" 
d="M68 0v1365h544v-1365h-544zM136 68h408v1229h-408v-1229z" />
    <glyph glyph-name="glyph1" horiz-adv-x="0" 
 />
    <glyph glyph-name="glyph2" horiz-adv-x="682" 
 />
    <glyph glyph-name="glyph3" horiz-adv-x="0" 
 />
    <glyph glyph-name="glyph3" horiz-adv-x="0" 
 />
    <glyph glyph-name="uni000D" unicode="&#xd;" horiz-adv-x="1024" 
 />
    <glyph glyph-name="space" unicode=" " horiz-adv-x="716" 
 />
    <glyph glyph-name="exclam" unicode="!" horiz-adv-x="616" 
d="M205 96q0 42 31.5 74.5t72.5 32.5q42 0 72.5 -32.5t30.5 -74.5q0 -44 -30.5 -74t-74.5 -30q-41 0 -71.5 30.5t-30.5 73.5zM223 395v1094h168v-1094h-168z" />
    <glyph glyph-name="quotedbl" unicode="&#x22;" horiz-adv-x="667" 
d="M82 1044v492h168v-492h-168zM418 1044v492h168v-492h-168z" />
    <glyph glyph-name="numbersign" unicode="#" horiz-adv-x="1570" 
d="M41 508l41 149h346l53 209h-344l41 158h344l131 512h160l-131 -512h268l131 512h164l-129 -512h414l-41 -158h-414l-55 -209h412l-37 -149h-416l-129 -508h-166l131 508h-266l-133 -508h-162l137 508h-350zM586 657h268l55 209h-264z" />
    <glyph glyph-name="dollar" unicode="$" horiz-adv-x="1191" 
d="M164 0v379h147v-240h213v609l-196 120q-54 30 -86.5 55t-55 63.5t-22.5 86.5v258q0 121 52.5 163t174.5 42h133v307h144v-307h342v-379h-148v240h-194v-541l168 -104q20 -14 52 -34.5t48 -31.5t37 -29t31 -33.5t17 -38t7 -50.5v-349q0 -92 -61 -139t-150 -47h-149v-307
h-144v307h-360zM328 1069l196 -123v451h-196v-328zM668 139h196v400l-196 120v-520z" />
    <glyph glyph-name="percent" unicode="%" horiz-adv-x="1689" 
d="M123 874v441q0 140 49.5 188.5t183.5 48.5h74q84 0 132 -11t75 -44t35 -78.5t8 -128.5v-391q0 -55 -2.5 -89t-10.5 -66t-23 -49t-41 -30.5t-62.5 -18.5t-89.5 -5h-82q-77 0 -121 8.5t-74 34.5t-40.5 70t-10.5 120zM270 772h267v645h-267v-645zM406 -309l681 2091h158
l-680 -2091h-159zM1006 236v442q0 133 51 181t184 48h70q85 0 133.5 -10.5t77 -43t37 -78.5t8.5 -130v-393q0 -64 -4.5 -102.5t-17.5 -70.5t-40 -47.5t-68 -23.5t-106 -8h-78q-76 0 -120.5 8.5t-74.5 35t-41 71.5t-11 121zM1155 135h266v645h-266v-645z" />
    <glyph glyph-name="ampersand" unicode="&#x26;" horiz-adv-x="1486" 
d="M123 287v274l397 340l-188 225v166q0 50 2 81t9.5 63.5t22 50.5t39.5 33.5t61.5 21.5t88.5 6h133q62 0 103.5 -5t71.5 -20t46 -33t25 -55t11.5 -74t2.5 -101v-189l-221 -178l174 -209l244 201l98 -111l-246 -203l408 -489l-113 -94l-295 342v-76q0 -73 -8 -116t-33 -77.5
t-72 -48.5t-124 -14h-391q-37 0 -66 1.5t-52.5 7t-41 10.5t-31.5 17.5t-23 22t-15 31t-9.5 36.5t-5 46t-2 53.5t-0.5 63.5zM260 283q0 -51 3 -75.5t17.5 -43t39 -23t71.5 -4.5h346q30 0 49.5 1.5t33.5 8.5t20.5 13.5t10.5 24t4.5 32.5t0.5 47v234l-246 301l-350 -312v-204z
M473 1169l164 -165l174 141v119q0 37 -0.5 54t-4.5 37.5t-11 27.5t-21.5 15t-34 9.5t-51.5 1.5h-88q-46 0 -69.5 -4.5t-37.5 -20t-17 -37t-3 -65.5v-113z" />
    <glyph glyph-name="quotesingle" unicode="'" horiz-adv-x="413" 
d="M123 1047v489h168v-489h-168z" />
    <glyph glyph-name="parenleft" unicode="(" horiz-adv-x="559" 
d="M164 250v1040q0 83 9.5 151.5t35.5 133.5t67 109t108 71t155 27v-105q-115 0 -173.5 -103t-58.5 -288v-1026q0 -135 23 -238t76.5 -168t132.5 -65v-98q-89 0 -156.5 33t-108.5 85.5t-66.5 128t-34.5 150t-9 162.5z" />
    <glyph glyph-name="parenright" unicode=")" horiz-adv-x="559" 
d="M20 -205q115 0 173.5 103t58.5 288v1026q0 135 -23 238t-76.5 168t-132.5 65v99q89 0 156.5 -33t108.5 -85.5t66.5 -128t34.5 -150t9 -162.5v-1041q0 -83 -9.5 -151.5t-35.5 -133t-67 -109t-108 -71t-155 -26.5v104z" />
    <glyph glyph-name="asterisk" unicode="*" horiz-adv-x="833" 
d="M82 1102l207 110l-203 123l55 105l215 -123v242h119v-242l217 119l60 -103l-215 -121l211 -120l-60 -103l-213 113v-244h-119v246l-215 -117z" />
    <glyph glyph-name="plus" unicode="+" horiz-adv-x="1236" 
d="M164 725v135h383v387h143v-387h383v-135h-383v-383h-143v383h-383z" />
    <glyph glyph-name="comma" unicode="," horiz-adv-x="473" 
d="M41 -307l158 508h151l-160 -508h-149z" />
    <glyph glyph-name="hyphen" unicode="-" horiz-adv-x="923" 
d="M164 725v135h596v-135h-596z" />
    <glyph glyph-name="period" unicode="." horiz-adv-x="452" 
d="M123 96q0 42 31.5 74.5t72.5 32.5q42 0 72.5 -32.5t30.5 -74.5q0 -44 -30.5 -74t-74.5 -30q-41 0 -71.5 30.5t-30.5 73.5z" />
    <glyph glyph-name="slash" unicode="/" horiz-adv-x="858" 
d="M10 -307l680 2089h158l-678 -2089h-160z" />
    <glyph glyph-name="zero" unicode="0" horiz-adv-x="1069" 
d="M123 248v1016q0 139 48 205.5t179 66.5h359q123 0 180 -67.5t57 -204.5v-985q0 -150 -50.5 -214.5t-176.5 -64.5h-352q-134 0 -189 63.5t-55 184.5zM287 139h495v1258h-495v-1258z" />
    <glyph glyph-name="one" unicode="1" horiz-adv-x="716" 
d="M61 1395v141h177q100 0 144 -43.5t44 -132.5v-1221h127v-139h-434v139h139v1256h-197z" />
    <glyph glyph-name="two" unicode="2" horiz-adv-x="1075" 
d="M102 0v371q0 169 111 237l590 367v422h-539v-250h-160v389h596q153 0 212 -51.5t59 -186.5v-239q0 -141 -101 -203l-608 -385v-332h539v189h172v-328h-871z" />
    <glyph glyph-name="three" unicode="3" horiz-adv-x="1052" 
d="M102 281v108h150v-262h530v637h-530v133l508 500h-508v-144h-150v283h848v-139l-501 -500h264q134 0 184.5 -53.5t50.5 -186.5v-383q0 -76 -8.5 -121t-37 -83t-85.5 -54t-151 -16h-312q-50 0 -88.5 8t-65 20.5t-45 34t-29 43t-16 53t-7 58t-1.5 64.5z" />
    <glyph glyph-name="four" unicode="4" horiz-adv-x="1062" 
d="M20 395l648 1141h166v-1001h147v-140h-147v-256h147v-139h-537v139h226v256h-650zM272 535h398v696z" />
    <glyph glyph-name="five" unicode="5" horiz-adv-x="1060" 
d="M102 246v143h160v-250h531v658h-668v739h772v-139h-612v-461h481q61 0 100 -13t58.5 -40.5t26.5 -61t7 -84.5v-489q0 -44 -4.5 -76.5t-19.5 -66.5t-41 -56t-71 -35.5t-107 -13.5h-381q-72 0 -119 17.5t-71 53t-33 76t-9 99.5z" />
    <glyph glyph-name="six" unicode="6" horiz-adv-x="1075" 
d="M102 254v1038q0 109 60.5 176.5t185.5 67.5h377q115 0 161 -64.5t46 -175.5v-45h-139v156h-523v-500h447q142 0 199 -59.5t57 -171.5v-416q0 -134 -69 -197t-220 -63h-301q-156 0 -218.5 59t-62.5 195zM270 139h535v627h-535v-627z" />
    <glyph glyph-name="seven" unicode="7" horiz-adv-x="931" 
d="M61 0l701 1397h-553v-305h-148v444h850v-209l-663 -1327h-187z" />
    <glyph glyph-name="eight" unicode="8" horiz-adv-x="1075" 
d="M102 274v342q0 97 56 157.5t112 64.5q-46 3 -86.5 59.5t-40.5 130.5v264q0 111 56 177.5t180 66.5h321q119 0 175.5 -67.5t56.5 -176.5v-264q0 -77 -37 -132t-86 -58q58 -3 111 -62t53 -153v-349q0 -136 -70 -205t-219 -69h-301q-153 0 -217 67.5t-64 206.5zM270 139h535
v615h-535v-615zM301 907h473v500h-473v-500z" />
    <glyph glyph-name="nine" unicode="9" horiz-adv-x="1075" 
d="M102 240v45h168v-152h535v563h-447q-142 0 -199 60t-57 172v348q0 134 69 197t220 63h301q156 0 218.5 -59t62.5 -195v-1038q0 -109 -60.5 -176.5t-185.5 -67.5h-389q-118 0 -177 67t-59 173zM270 838h535v559h-535v-559z" />
    <glyph glyph-name="colon" unicode=":" horiz-adv-x="452" 
d="M123 96q0 42 31.5 74.5t72.5 32.5q42 0 72.5 -32.5t30.5 -74.5q0 -44 -30.5 -74t-74.5 -30q-41 0 -71.5 30.5t-30.5 73.5zM123 831q0 43 31.5 75t72.5 32q42 0 72.5 -32t30.5 -75q0 -45 -30 -75.5t-75 -30.5q-41 0 -71.5 30.5t-30.5 75.5z" />
    <glyph glyph-name="semicolon" unicode=";" horiz-adv-x="495" 
d="M41 -307l158 508h151l-160 -508h-149zM162 831q0 43 31.5 75t72.5 32q43 0 75 -32t32 -75q0 -45 -32 -75.5t-77 -30.5q-41 0 -71.5 30.5t-30.5 75.5z" />
    <glyph glyph-name="less" unicode="&#x3c;" horiz-adv-x="1107" 
d="M123 698v156l924 444v-141l-775 -381l775 -383v-141z" />
    <glyph glyph-name="equal" unicode="=" horiz-adv-x="1155" 
d="M164 561v131h827v-131h-827zM164 874v134h827v-134h-827z" />
    <glyph glyph-name="greater" unicode="&#x3e;" horiz-adv-x="1107" 
d="M61 252v141l775 383q-106 52 -371 183t-404 198v141q172 -81 924 -444v-156z" />
    <glyph glyph-name="question" unicode="?" horiz-adv-x="985" 
d="M41 1163v373h551q119 0 174 -47.5t55 -171.5v-395q0 -99 -47.5 -154t-144.5 -55h-264v-316h-164v277q0 95 47 137.5t147 42.5h250v543h-455v-234h-149zM178 96q0 42 31.5 74.5t73.5 32.5t73 -32.5t31 -74.5q0 -44 -31 -74t-75 -30q-42 0 -72.5 30t-30.5 74z" />
    <glyph glyph-name="A" unicode="A" horiz-adv-x="1312" 
d="M51 0v139h129l357 1397h241l350 -1397h134v-139h-400v139h111l-103 408h-430l-102 -408h113v-139h-400zM473 676h365l-183 721z" />
    <glyph glyph-name="B" unicode="B" horiz-adv-x="1140" 
d="M123 0v139h129v1260h-127v137h428q209 0 209 -182v-379l8 6q46 27 100 27q63 0 105.5 -46t42.5 -131v-651q0 -40 -7.5 -69.5t-26 -56t-56 -40.5t-92.5 -14h-713zM420 141h434v727l-434 -272v-455zM420 760l176 110v529h-176v-639z" />
    <glyph glyph-name="C" unicode="C" horiz-adv-x="1075" 
d="M123 219v1096q0 42 10 79.5t32 70.5t63 52t96 19h649v-379h-139v240h-543v-1258h543v240h139v-379h-629q-117 0 -169 60t-52 159z" />
    <glyph glyph-name="D" unicode="D" horiz-adv-x="1236" 
d="M123 0v139h129v1258h-129v139h723q148 0 208 -64t60 -204v-1000q0 -140 -65 -204t-203 -64h-723zM420 139h526v1258h-526v-1258z" />
    <glyph glyph-name="E" unicode="E" horiz-adv-x="1196" 
d="M133 0v139h129v1258h-129v139h961v-379h-140v240h-524v-533h289v146h139v-430h-139v145h-289v-586h524v240h140v-379h-961z" />
    <glyph glyph-name="F" unicode="F" horiz-adv-x="1196" 
d="M133 0v139h129v1258h-129v139h961v-379h-140v240h-524v-533h289v146h139v-430h-139v145h-289v-586h133v-139h-430z" />
    <glyph glyph-name="G" unicode="G" 
d="M123 254v1046q0 236 219 236h645v-379h-164v240h-532v-1258h532v479l-284 -178v150l448 280v-870h-608q-144 0 -200 54t-56 200z" />
    <glyph glyph-name="H" unicode="H" horiz-adv-x="1429" 
d="M133 0v139h129v1258h-129v139h422v-139h-125v-535h569v535h-125v139h422v-139h-129v-1258h129v-139h-422v139h125v586h-569v-586h125v-139h-422z" />
    <glyph glyph-name="I" unicode="I" horiz-adv-x="757" 
d="M164 0v139h129v1258h-129v139h430v-139h-133v-1258h133v-139h-430z" />
    <glyph glyph-name="J" unicode="J" horiz-adv-x="831" 
d="M41 0v139h356v1258h-131v139h432v-139h-133v-1157q0 -45 -10.5 -85t-34 -76t-68 -57.5t-106.5 -21.5h-305z" />
    <glyph glyph-name="K" unicode="K" horiz-adv-x="1239" 
d="M133 0v139h129v1258h-129v139h430v-139h-141v-572l522 711h221v-139h-137l-426 -598l445 -660h131v-139h-234l-514 764v-625h133v-139h-430z" />
    <glyph glyph-name="L" unicode="L" horiz-adv-x="1081" 
d="M133 0v139h129v1258h-129v139h430v-139h-133v-1258h430v240h139v-379h-866z" />
    <glyph glyph-name="M" unicode="M" horiz-adv-x="1761" 
d="M133 0v139h129v1258h-129v139h316l434 -895l430 895h315v-139h-129v-1258h129v-139h-430v139h133v1055l-387 -797h-129l-385 803v-1061h133v-139h-430z" />
    <glyph glyph-name="N" unicode="N" horiz-adv-x="1472" 
d="M133 0v139h129v1258h-129v139h316l593 -1221v1082h-133v139h430v-139h-129v-1397h-200l-580 1196v-1057h133v-139h-430z" />
    <glyph glyph-name="O" unicode="O" 
d="M123 248v1016q0 139 48 205.5t179 66.5h400q123 0 180 -67.5t57 -204.5v-985q0 -150 -50.5 -214.5t-176.5 -64.5h-393q-134 0 -189 63.5t-55 184.5zM287 139h536v1258h-536v-1258z" />
    <glyph glyph-name="P" unicode="P" horiz-adv-x="1216" 
d="M133 0v139h129v1256h-129v141h731q136 0 183 -51.5t47 -202.5v-149q0 -28 -1.5 -50.5t-8 -43t-10.5 -33.5t-18.5 -29.5t-21 -24.5t-29.5 -23.5t-33 -22t-42 -26t-47 -28.5l-453 -283v-430h133v-139h-430zM430 733l514 318v344h-514v-662z" />
    <glyph glyph-name="Q" unicode="Q" 
d="M123 248v1016q0 139 48 205.5t179 66.5h400q123 0 180 -67.5t57 -204.5v-985q0 -150 -50.5 -214.5t-176.5 -64.5h-123v-123h-164v123h-106q-134 0 -189 63.5t-55 184.5zM287 139h186v103h164v-103h186v1258h-536v-1258z" />
    <glyph glyph-name="R" unicode="R" horiz-adv-x="1323" 
d="M133 0v139h129v1258h-129v139h731q135 0 182.5 -52t47.5 -204v-127q0 -35 -2 -61.5t-10 -50.5t-14.5 -40.5t-25 -36t-31 -31t-43 -32t-51.5 -33t-66 -39.5t-77 -47l404 -643h114v-139h-405v139h110l-350 563l-217 -133v-430h133v-139h-430zM430 733l514 318v346h-514
v-664z" />
    <glyph glyph-name="S" unicode="S" 
d="M123 0v379h147v-240h553v400l-536 329q-54 30 -86.5 55t-55 63.5t-22.5 86.5v258q0 121 52.5 163t174.5 42h619v-379h-148v240h-534v-328l508 -317q20 -14 52 -34.5t48 -31.5t37 -29t31 -33.5t17 -38t7 -50.5v-349q0 -92 -61 -139t-150 -47h-653z" />
    <glyph glyph-name="T" unicode="T" horiz-adv-x="1083" 
d="M51 1155v381h981v-381h-149v242h-258v-1258h133v-139h-430v139h129v1258h-258v-242h-148z" />
    <glyph glyph-name="U" unicode="U" horiz-adv-x="1396" 
d="M123 1397v139h430v-139h-133v-1258h557v1258h-133v139h430v-139h-129v-1184q0 -109 -45.5 -161t-138.5 -52h-527q-182 0 -182 203v1194h-129z" />
    <glyph glyph-name="V" unicode="V" horiz-adv-x="1310" 
d="M51 1397v139h375v-139h-107l338 -1258l336 1258h-129v139h396v-139h-111l-375 -1397h-235l-373 1397h-115z" />
    <glyph glyph-name="W" unicode="W" horiz-adv-x="1712" 
d="M51 1397v139h338v-139h-82l195 -1258l215 1397h278l215 -1397l195 1258h-82v139h338v-139h-98l-220 -1397h-266l-221 1395l-221 -1395h-266l-219 1397h-99z" />
    <glyph glyph-name="X" unicode="X" horiz-adv-x="1208" 
d="M51 0v139h117l350 668l-309 590h-123v139h225l293 -565l297 565h221v-139h-121l-311 -590l354 -668h113v-139h-213l-338 639l-338 -639h-217z" />
    <glyph glyph-name="Y" unicode="Y" horiz-adv-x="1138" 
d="M51 1397v139h332v-139h-74l260 -500l267 500h-74v139h325v-139h-77l-359 -641v-617h133v-139h-430v139h129v617l-340 641h-92z" />
    <glyph glyph-name="Z" unicode="Z" horiz-adv-x="1067" 
d="M61 0v147l773 1250h-572v-230h-145v369h889v-147l-768 -1250h604v234h143v-373h-924z" />
    <glyph glyph-name="bracketleft" unicode="[" horiz-adv-x="530" 
d="M164 -172v1819q0 72 36 103.5t111 31.5h209v-101h-213v-1884h213v-102h-209q-76 0 -111.5 30.5t-35.5 102.5z" />
    <glyph glyph-name="backslash" unicode="\" horiz-adv-x="858" 
d="M10 1782h160l678 -2089h-158z" />
    <glyph glyph-name="bracketright" unicode="]" horiz-adv-x="530" 
d="M10 -205h213v1884h-213v103h209q76 0 112 -30.5t36 -102.5v-1819q0 -72 -36.5 -103.5t-111.5 -31.5h-209v100z" />
    <glyph glyph-name="asciicircum" unicode="^" horiz-adv-x="1220" 
d="M164 768l393 768h127l373 -768h-142l-299 623l-309 -623h-143z" />
    <glyph glyph-name="underscore" unicode="_" 
d="M10 -147h1090v-82h-1090v82z" />
    <glyph glyph-name="grave" unicode="`" horiz-adv-x="372" 
d="M2 1397h145l220 -252h-150z" />
    <glyph glyph-name="a" unicode="a" horiz-adv-x="1009" 
d="M41 180v76q0 74 23 107.5t116 89.5l451 280v152h-402v-119h-131v258h512q100 0 144.5 -43.5t44.5 -132.5v-709h129v-139h-713q-103 0 -138.5 39t-35.5 141zM205 139h426v430l-426 -266v-164z" />
    <glyph glyph-name="b" unicode="b" horiz-adv-x="1079" 
d="M82 0v139h129v1258h-129v139h297v-739l348 219q46 28 102 28q65 0 106.5 -47t41.5 -129v-688q0 -84 -38.5 -132t-137.5 -48h-719zM379 139h434v766l-434 -272v-494z" />
    <glyph glyph-name="c" unicode="c" horiz-adv-x="872" 
d="M102 180v664q0 88 49 135t146 47h494v-260h-140v119h-385v-746h385v119h140v-258h-510q-52 0 -88.5 14t-55.5 40t-27 56t-8 70z" />
    <glyph glyph-name="d" unicode="d" horiz-adv-x="1079" 
d="M102 115v716q0 95 39 144t146 49h413v373h-135v139h303v-1395h129v-141h-297v236l-354 -224q-60 -32 -113 -32q-61 0 -96 39t-35 96zM266 129l434 270v486h-434v-756z" />
    <glyph glyph-name="e" unicode="e" horiz-adv-x="952" 
d="M102 150v673q0 101 51 152t160 51h346q102 0 146.5 -40.5t44.5 -141.5v-191l-584 -368v-146h422v119h162v-108q0 -66 -40.5 -108t-123.5 -42h-420q-83 0 -123.5 42t-40.5 108zM266 451l420 264v170h-420v-434z" />
    <glyph glyph-name="f" unicode="f" horiz-adv-x="679" 
d="M82 0v139h164v738h-164v147h164v299q0 114 44 163.5t138 49.5h170v-139h-192v-373h165v-147h-165v-738h165v-139h-489z" />
    <glyph glyph-name="g" unicode="g" horiz-adv-x="1071" 
d="M102 125v719q0 100 35.5 140t138.5 40h713v-139h-129v-1157q0 -89 -44 -133t-144 -44h-496v279h139v-137h377v534l-350 -221q-45 -26 -92 -26q-62 0 -105 42t-43 103zM262 123l430 270v492h-430v-762z" />
    <glyph glyph-name="h" unicode="h" horiz-adv-x="1163" 
d="M82 0v139h129v1258h-129v139h295v-729l340 213q41 24 86 24q62 0 104.5 -43t42.5 -118v-744h131v-139h-395v139h98v758l-407 -256v-502h100v-139h-395z" />
    <glyph glyph-name="i" unicode="i" horiz-adv-x="614" 
d="M102 0v139h129v746h-129v139h297v-885h133v-139h-430zM211 1296q0 42 30.5 73.5t71.5 31.5q44 0 74.5 -31.5t30.5 -73.5q0 -46 -30.5 -76t-76.5 -30q-41 0 -70.5 30.5t-29.5 75.5z" />
    <glyph glyph-name="j" unicode="j" horiz-adv-x="540" 
d="M-20 -268h270v1153h-129v139h297v-1257q0 -89 -44.5 -133t-144.5 -44h-249v142zM211 1296q0 42 30.5 73.5t71.5 31.5q44 0 74.5 -31.5t30.5 -73.5q0 -46 -30.5 -76t-76.5 -30q-41 0 -70.5 30.5t-29.5 75.5z" />
    <glyph glyph-name="k" unicode="k" horiz-adv-x="1038" 
d="M82 0v139h131v1258h-131v139h287v-971l467 459h159v-139h-112l-334 -342l342 -404h106v-139h-176l-444 516v-377h123v-139h-418z" />
    <glyph glyph-name="l" unicode="l" horiz-adv-x="634" 
d="M102 0v139h129v1258h-129v139h297v-1397h133v-139h-430z" />
    <glyph glyph-name="m" unicode="m" horiz-adv-x="1673" 
d="M82 0v139h129v748h-129v137h295v-195l309 195q33 20 74 20q160 0 160 -157v-56l307 193q33 20 73 20q160 0 160 -157v-748h131v-139h-395v139h98v762l-374 -233v-529h100v-139h-367v139h99l2 8v756l-377 -235v-529h100v-139h-395z" />
    <glyph glyph-name="n" unicode="n" horiz-adv-x="1163" 
d="M82 0v139h129v748h-129v137h295v-213l340 213q33 20 74 20q159 0 159 -157v-748h131v-139h-395v139h98v762l-407 -256v-506h100v-139h-395z" />
    <glyph glyph-name="o" unicode="o" horiz-adv-x="923" 
d="M82 182v660q0 90 41 136t149 46h379q106 0 148.5 -46.5t42.5 -135.5v-660q0 -182 -191 -182h-379q-100 0 -145 46.5t-45 135.5zM248 139h428v746h-428v-746z" />
    <glyph glyph-name="p" unicode="p" horiz-adv-x="1079" 
d="M82 883v141h297v-233l354 223q49 30 103 30q60 0 100.5 -35.5t40.5 -97.5v-718q0 -95 -38.5 -144t-145.5 -49h-414v-373h135v-139h-430v139h127v1256h-129zM379 139h434v760l-434 -272v-488z" />
    <glyph glyph-name="q" unicode="q" horiz-adv-x="1099" 
d="M102 156v688q0 83 39 131.5t138 48.5h718v-139h-129v-1258h129v-139h-426v139h129v600l-348 -219q-46 -28 -102 -28q-65 0 -106.5 47t-41.5 129zM266 119l434 274v492h-434v-766z" />
    <glyph glyph-name="r" unicode="r" horiz-adv-x="944" 
d="M82 0v139h129v748h-129v139h295v-180l252 158q33 20 73 20q160 0 160 -158v-182h-166v199l-319 -203v-541h100v-139h-395z" />
    <glyph glyph-name="s" unicode="s" horiz-adv-x="899" 
d="M102 725v117q0 85 42.5 133.5t150.5 48.5h477v-307h-139v168h-369v-172l348 -217l45 -27t42 -25.5t32.5 -22t29 -24.5t19 -25t14 -30.5t3.5 -34.5v-127q0 -180 -176 -180h-496v309h139v-170h369v170l-336 211q-27 17 -71 43.5t-58.5 36.5t-34.5 30t-25.5 41.5t-5.5 53.5z
" />
    <glyph glyph-name="t" unicode="t" horiz-adv-x="649" 
d="M82 877v147h151v373h160v-373h166v-147h-166v-738h195v-139h-172q-94 0 -138.5 50t-44.5 163v664h-151z" />
    <glyph glyph-name="u" unicode="u" horiz-adv-x="1163" 
d="M82 887v139h297v-887l407 256v492h-100v139h266v-887h129v-139h-295v229l-340 -213q-33 -20 -73 -20q-160 0 -160 158v733h-131z" />
    <glyph glyph-name="v" unicode="v" horiz-adv-x="1050" 
d="M41 885v139h377v-139h-101l205 -746l209 746h-100v139h379v-139h-123l-248 -885h-227l-250 885h-121z" />
    <glyph glyph-name="w" unicode="w" horiz-adv-x="1499" 
d="M41 885v139h326v-139h-91l166 -744l191 883h225l197 -887l168 748h-93v139h328v-139h-98l-195 -885h-219l-194 887l-199 -887h-229q0 1 -48 222.5t-96.5 442.5t-50.5 220h-88z" />
    <glyph glyph-name="x" unicode="x" horiz-adv-x="1040" 
d="M61 0v139h115l258 391l-235 355h-121v139h196l250 -369l234 369h200v-139h-114l-236 -355l256 -391h115v-139h-193l-262 408l-260 -408h-203z" />
    <glyph glyph-name="y" unicode="y" horiz-adv-x="1054" 
d="M82 885v139h297v-883l407 256v488h-100v139h266v-1296q0 -89 -44 -133t-144 -44h-473v279h139v-137h354v538l-360 -223q-48 -28 -94 -28q-51 0 -84 33.5t-33 99.5v772h-131z" />
    <glyph glyph-name="z" unicode="z" horiz-adv-x="925" 
d="M82 0v141l567 744h-416v-146h-141v285h735v-145l-563 -740h436v142h144v-281h-762z" />
    <glyph glyph-name="braceleft" unicode="{" horiz-adv-x="673" 
d="M102 698v82q191 80 191 291v293q0 65 2.5 109t11 92.5t24 79.5t41.5 60.5t64.5 46t92.5 26.5t124 10v-84q-44 0 -78 -10.5t-57 -27t-39.5 -46t-25.5 -58t-14 -73t-6 -80.5t-1 -90v-248q0 -245 -211 -332q211 -87 211 -331v-248q0 -54 1 -90t6 -80.5t14 -73t25.5 -58
t39.5 -46t57 -27t78 -10.5v-84q-70 0 -124 10t-92.5 26.5t-64.5 46t-41.5 60.5t-24 79.5t-11 92.5t-2.5 109v293q0 210 -191 290z" />
    <glyph glyph-name="bar" unicode="|" horiz-adv-x="552" 
d="M205 -309v2093h143v-2093h-143z" />
    <glyph glyph-name="braceright" unicode="}" horiz-adv-x="673" 
d="M20 -225q39 0 69.5 7t53 23t39.5 34.5t27.5 47.5t17.5 55.5t10 66t4 72t1 79.5v248q0 244 211 331q-211 87 -211 332v248q0 47 -1 79.5t-4 72t-10 66t-17.5 55.5t-27.5 47.5t-39.5 34.5t-53 23t-69.5 7v84q70 0 124.5 -10t92.5 -26.5t64.5 -46t42 -60.5t24 -79.5
t11 -92.5t2.5 -109v-293q0 -211 190 -291v-82q-190 -80 -190 -290v-293q0 -65 -2.5 -109t-11 -92.5t-24 -79.5t-42 -60.5t-64.5 -46t-92.5 -26.5t-124.5 -10v84z" />
    <glyph glyph-name="asciitilde" unicode="~" horiz-adv-x="1218" 
d="M82 588q146 200 291 200q59 0 132.5 -25t130.5 -55.5t115.5 -55.5t90.5 -25q36 0 68 11.5t60 34t46 41t41 46.5l80 -74q-155 -188 -293 -188q-51 0 -144 39t-184 78.5t-139 39.5q-61 0 -100 -28.5t-103 -108.5z" />
    <glyph glyph-name="uni00A0" unicode="&#xa0;" horiz-adv-x="716" 
 />
    <glyph glyph-name="cent" unicode="&#xa2;" horiz-adv-x="925" 
d="M102 180v664q0 88 49 135t146 47h133v174h121v-174h274v-260h-139v119h-135v-746h135v119h139v-258h-274v-240h-121v240h-149q-52 0 -88.5 14t-55.5 40t-27 56t-8 70zM266 139h164v746h-164v-746z" />
    <glyph glyph-name="sterling" unicode="&#xa3;" horiz-adv-x="1087" 
d="M68 0v139h178v738h-178v147h178v299q0 114 44 163.5t138 49.5h250v-139h-272v-373h245v-147h-245v-738h436v240h139v-379h-913z" />
    <glyph glyph-name="yen" unicode="&#xa5;" horiz-adv-x="1138" 
d="M51 1397v139h332v-139h-74l260 -500l267 500h-74v139h325v-139h-77l-283 -506h256v-135h-332v-181h332v-131h-332v-305h133v-139h-430v139h129v305h-327v131h329v183h-329v133h256l-269 506h-92z" />
    <glyph glyph-name="dieresis" unicode="&#xa8;" horiz-adv-x="481" 
d="M2 1233q0 35 26.5 62.5t61.5 27.5q36 0 62 -27t26 -63q0 -38 -26 -64t-64 -26q-34 0 -60 26t-26 64zM305 1233q0 35 26.5 62.5t61.5 27.5q36 0 62 -27t26 -63q0 -38 -26 -64t-64 -26q-34 0 -60 26t-26 64z" />
    <glyph glyph-name="copyright" unicode="&#xa9;" horiz-adv-x="1814" 
d="M113 764q0 160 62.5 306t168.5 252t253 169t308 63q159 0 304.5 -63t251.5 -169t168.5 -252t62.5 -306q0 -161 -62.5 -307t-168.5 -251t-252 -167t-306 -62q-215 0 -396.5 105t-287.5 286.5t-106 395.5zM248 764q0 -132 52 -252.5t139.5 -207.5t209 -139t254.5 -52
q176 0 325.5 87t236.5 236.5t87 325.5q0 175 -87 325.5t-236.5 239t-325.5 88.5q-133 0 -254.5 -52t-209 -139t-139.5 -207.5t-52 -252.5zM541 444v627q0 83 46.5 127.5t137.5 44.5h467v-246h-133v113h-363v-704h363v112h133v-244h-483q-95 0 -131.5 45.5t-36.5 124.5z" />
    <glyph glyph-name="guillemotleft" unicode="&#xab;" horiz-adv-x="907" 
d="M61 553l316 434l117 -82l-261 -352l261 -320l-113 -83zM455 553l315 434l117 -82l-260 -352l260 -320l-113 -83z" />
    <glyph glyph-name="uni00AD" unicode="&#xad;" horiz-adv-x="923" 
d="M164 725v135h596v-135h-596z" />
    <glyph glyph-name="registered" unicode="&#xae;" horiz-adv-x="1841" 
d="M113 764q0 160 62.5 306t168.5 252t253 169t308 63q159 0 304.5 -63t251.5 -169t168.5 -252t62.5 -306q0 -161 -62.5 -307t-168.5 -251t-252 -167t-306 -62q-215 0 -396.5 105t-287.5 286.5t-106 395.5zM248 764q0 -132 52 -252.5t139.5 -207.5t209 -139t254.5 -52
q176 0 325.5 87t236.5 236.5t87 325.5q0 175 -87 325.5t-236.5 239t-325.5 88.5q-133 0 -254.5 -52t-209 -139t-139.5 -207.5t-52 -252.5zM528 305v123h115v668h-115v131h570q75 0 124.5 -36t49.5 -108v-108q0 -37 -9.5 -65.5t-30.5 -51t-37.5 -34.5t-47.5 -31l-88 -56
l82 -309h143v-123h-102q-78 0 -121.5 39.5t-67.5 124.5l-51 190l-154 -94v-137h103v-123h-363zM788 700l347 222v174h-347v-396z" />
    <glyph glyph-name="acute" unicode="&#xb4;" horiz-adv-x="372" 
d="M2 1145l219 252h146l-215 -252h-150z" />
    <glyph glyph-name="cedilla" unicode="&#xb8;" horiz-adv-x="348" 
d="M0 4h121v-90h76q75 0 113 -37.5t38 -105.5v-76q0 -65 -29.5 -102t-109.5 -37h-209v108h221v137h-221v203z" />
    <glyph glyph-name="guillemotright" unicode="&#xbb;" horiz-adv-x="907" 
d="M20 231l261 353l-261 319l113 84l320 -403l-316 -434zM414 231l260 353l-260 319l112 84l320 -403l-316 -434z" />
    <glyph glyph-name="circumflex" unicode="&#x2c6;" horiz-adv-x="598" 
d="M6 1145l230 252h137l219 -252h-150l-141 164l-143 -164h-152z" />
    <glyph glyph-name="ring" unicode="&#x2da;" horiz-adv-x="364" 
d="M0 1276q0 75 54 128.5t130 53.5q74 0 127.5 -53.5t53.5 -128.5t-54 -128.5t-129 -53.5t-128.5 54t-53.5 128zM100 1278q0 -34 24 -59t58 -25q35 0 59.5 24.5t24.5 57.5q0 35 -24.5 59.5t-57.5 24.5q-35 0 -59.5 -24t-24.5 -58z" />
    <glyph glyph-name="tilde" unicode="&#x2dc;" horiz-adv-x="686" 
d="M6 1221q17 47 74.5 101t116.5 54q46 0 104.5 -28t106.5 -56t69 -28q37 0 73 30t54 70l78 -57q-17 -48 -78 -103t-127 -55q-51 0 -143 55.5t-135 55.5q-34 0 -57 -21.5t-52 -79.5z" />
    <glyph glyph-name="afii10023" unicode="&#x401;" horiz-adv-x="1165" 
d="M123 0v139h129v1258h-129v139h960v-379h-139v240h-524v-533h289v146h139v-430h-139v145h-289v-586h524v240h139v-379h-960zM397 1724q0 36 26.5 63.5t61.5 27.5q36 0 62 -27.5t26 -63.5q0 -38 -26 -64t-64 -26q-34 0 -60 26t-26 64zM700 1724q0 36 26.5 63.5t61.5 27.5
q36 0 62.5 -27.5t26.5 -63.5q0 -38 -26.5 -64t-64.5 -26q-34 0 -60 26t-26 64z" />
    <glyph glyph-name="afii10051" unicode="&#x402;" horiz-adv-x="1404" 
d="M51 1100v436h981v-436h-147v297h-258v-535h385q109 0 174 -58t65 -188v-716q0 -92 -68 -148.5t-171 -56.5h-133v141h206v889h-458v-586h131v-139h-430v139h131v1258h-260v-297h-148z" />
    <glyph glyph-name="afii10052" unicode="&#x403;" horiz-adv-x="1060" 
d="M123 0v139h129v1258h-129v139h887v-379h-140v240h-450v-1258h133v-139h-430zM428 1649l219 252h146l-215 -252h-150z" />
    <glyph glyph-name="afii10053" unicode="&#x404;" horiz-adv-x="1021" 
d="M82 201v1134q0 99 50 150t161 51h647v-379h-147v240h-543v-533h465v-137h-465v-588h543v240h147v-379h-647q-104 0 -157.5 58t-53.5 143z" />
    <glyph glyph-name="afii10054" unicode="&#x405;" 
d="M123 0v379h147v-240h553v400l-536 329q-54 30 -86.5 55t-55 63.5t-22.5 86.5v258q0 121 52.5 163t174.5 42h619v-379h-148v240h-534v-328l508 -317q20 -14 52 -34.5t48 -31.5t37 -29t31 -33.5t17 -38t7 -50.5v-349q0 -92 -61 -139t-150 -47h-653z" />
    <glyph glyph-name="afii10055" unicode="&#x406;" horiz-adv-x="757" 
d="M164 0v139h129v1258h-129v139h430v-139h-133v-1258h133v-139h-430z" />
    <glyph glyph-name="afii10056" unicode="&#x407;" horiz-adv-x="757" 
d="M141 1724q0 36 26.5 63.5t61.5 27.5q36 0 62 -27.5t26 -63.5q0 -38 -26 -64t-64 -26q-34 0 -60 26t-26 64zM164 0v139h129v1258h-129v139h430v-139h-133v-1258h133v-139h-430zM444 1724q0 36 26.5 63.5t61.5 27.5q36 0 62.5 -27.5t26.5 -63.5q0 -38 -26.5 -64t-64.5 -26
q-34 0 -60 26t-26 64z" />
    <glyph glyph-name="afii10057" unicode="&#x408;" horiz-adv-x="831" 
d="M41 0v139h356v1258h-131v139h432v-139h-133v-1157q0 -45 -10.5 -85t-34 -76t-68 -57.5t-106.5 -21.5h-305z" />
    <glyph glyph-name="afii10058" unicode="&#x409;" horiz-adv-x="1898" 
d="M51 0v139h178l447 1258h-162v139h741v-139h-143v-449l471 -297q99 -61 146 -132t47 -159v-118q0 -140 -42.5 -191t-152.5 -51h-760v141h121v1256h-113l-421 -1194q-54 -203 -238 -203h-119zM1112 139h514v318l-514 323v-641z" />
    <glyph glyph-name="afii10059" unicode="&#x40a;" horiz-adv-x="1882" 
d="M102 0v139h129v1258h-129v139h422v-139h-125v-535h529v535h-125v139h438v-139h-143v-449l471 -297q192 -118 192 -291v-118q0 -141 -42 -191.5t-152 -50.5h-764v139h125v586h-529v-586h125v-139h-422zM1098 139h514v318l-514 323v-641z" />
    <glyph glyph-name="afii10060" unicode="&#x40b;" horiz-adv-x="1507" 
d="M51 1100v436h981v-436h-149v297h-256v-537h383q109 0 175 -58t66 -188v-475h133v-139h-428v139h129v584h-458v-584h129v-139h-426v139h129v1258h-260v-297h-148z" />
    <glyph glyph-name="afii10061" unicode="&#x40c;" horiz-adv-x="1198" 
d="M102 0v139h129v1258h-129v139h430v-139h-141v-572l522 711h222v-139h-138l-426 -598l445 -660h131v-139h-234l-514 764v-625h133v-139h-430zM477 1634l219 252h146l-215 -252h-150z" />
    <glyph glyph-name="afii10062" unicode="&#x40e;" horiz-adv-x="1220" 
d="M51 1397v139h357v-139h-107l307 -858l303 858h-137v139h395v-139h-108l-422 -1194q-36 -103 -90 -153t-148 -50h-114v139h178l67 191l-376 1067h-105zM281 1919h108q2 -83 62 -143t145 -60q84 0 144.5 60.5t60.5 142.5h108q0 -130 -92 -221.5t-221 -91.5
q-131 0 -223 92.5t-92 220.5z" />
    <glyph glyph-name="afii10145" unicode="&#x40f;" horiz-adv-x="1429" 
d="M133 0v139h129v1258h-129v139h422v-139h-125v-1258h549v1258h-125v139h422v-139h-129v-1258h129v-139h-490v-307h-163v307h-490z" />
    <glyph glyph-name="afii10017" unicode="&#x410;" horiz-adv-x="1312" 
d="M51 0v139h129l357 1397h241l350 -1397h134v-139h-400v139h111l-103 408h-430l-102 -408h113v-139h-400zM473 676h365l-183 721z" />
    <glyph glyph-name="afii10018" unicode="&#x411;" horiz-adv-x="1224" 
d="M123 0v139h129v1258h-129v139h926v-379h-140v240h-489v-346l471 -297q211 -130 211 -291v-221q0 -139 -54.5 -190.5t-185.5 -51.5h-739zM420 139h514v420l-514 324v-744z" />
    <glyph glyph-name="afii10019" unicode="&#x412;" horiz-adv-x="1140" 
d="M123 0v139h129v1260h-127v137h428q209 0 209 -182v-379l8 6q46 27 100 27q63 0 105.5 -46t42.5 -131v-651q0 -40 -7.5 -69.5t-26 -56t-56 -40.5t-92.5 -14h-713zM420 141h434v727l-434 -272v-455zM420 760l176 110v529h-176v-639z" />
    <glyph glyph-name="afii10020" unicode="&#x413;" horiz-adv-x="1060" 
d="M123 0v139h129v1258h-129v139h887v-379h-140v240h-450v-1258h133v-139h-430z" />
    <glyph glyph-name="afii10021" unicode="&#x414;" horiz-adv-x="1349" 
d="M61 139h179l446 1258h-160v139h600v-1397h162v-446h-164v307h-899v-307h-164v446zM403 139h558v1258h-115z" />
    <glyph glyph-name="afii10022" unicode="&#x415;" horiz-adv-x="1196" 
d="M133 0v139h129v1258h-129v139h961v-379h-140v240h-524v-533h289v146h139v-430h-139v145h-289v-586h524v240h140v-379h-961z" />
    <glyph glyph-name="afii10024" unicode="&#x416;" horiz-adv-x="1634" 
d="M61 0v139h117l402 660l-383 598h-125v139h198l463 -698v559h-129v139h430v-139h-133v-559l463 698h199v-139h-123l-385 -598l401 -660h117v-139h-209l-463 764v-625h133v-139h-430v139h129v623l-463 -762h-209z" />
    <glyph glyph-name="afii10025" unicode="&#x417;" horiz-adv-x="1116" 
d="M123 274v197h168v-332h534v613h-299v155h269v500h-514v-254h-158v139q0 111 55.5 177.5t179.5 66.5h363q119 0 175 -67t56 -177v-264q0 -77 -37 -132t-86 -58q58 -3 111 -62t53 -153v-349q0 -136 -69.5 -205t-218.5 -69h-302q-153 0 -216.5 67.5t-63.5 206.5z" />
    <glyph glyph-name="afii10026" unicode="&#x418;" horiz-adv-x="1361" 
d="M102 0v139h131v1258h-131v139h297v-1124l609 1124h252v-139h-134v-1258h134v-139h-302v1137l-614 -1137h-242z" />
    <glyph glyph-name="afii10027" unicode="&#x419;" horiz-adv-x="1361" 
d="M102 0v139h131v1258h-131v139h297v-1124l609 1124h252v-139h-134v-1258h134v-139h-302v1137l-614 -1137h-242zM379 1911h108q2 -83 62 -143t145 -60q84 0 144.5 60.5t60.5 142.5h109q0 -130 -92.5 -222t-221.5 -92q-131 0 -223 93t-92 221z" />
    <glyph glyph-name="afii10028" unicode="&#x41a;" horiz-adv-x="1198" 
d="M102 0v139h129v1258h-129v139h430v-139h-141v-572l522 711h222v-139h-138l-426 -598l445 -660h131v-139h-234l-514 764v-625h133v-139h-430z" />
    <glyph glyph-name="afii10029" unicode="&#x41b;" horiz-adv-x="1302" 
d="M51 0v139h178l447 1258h-162v139h596v-1395h121v-141h-410v141h121v1256h-113l-421 -1194q-54 -203 -238 -203h-119z" />
    <glyph glyph-name="afii10030" unicode="&#x41c;" horiz-adv-x="1761" 
d="M133 0v139h129v1258h-129v139h316l434 -895l430 895h315v-139h-129v-1258h129v-139h-430v139h133v1055l-387 -797h-129l-385 803v-1061h133v-139h-430z" />
    <glyph glyph-name="afii10031" unicode="&#x41d;" horiz-adv-x="1368" 
d="M102 0v139h129v1258h-129v139h422v-139h-125v-535h570v535h-125v139h422v-139h-129v-1258h129v-139h-422v139h125v586h-570v-586h125v-139h-422z" />
    <glyph glyph-name="afii10032" unicode="&#x41e;" 
d="M123 248v1016q0 139 48 205.5t179 66.5h400q123 0 180 -67.5t57 -204.5v-985q0 -150 -50.5 -214.5t-176.5 -64.5h-393q-134 0 -189 63.5t-55 184.5zM287 139h536v1258h-536v-1258z" />
    <glyph glyph-name="afii10033" unicode="&#x41f;" horiz-adv-x="1388" 
d="M123 0v139h129v1258h-129v139h1143v-139h-129v-1258h129v-139h-422v139h125v1258h-549v-1258h125v-139h-422z" />
    <glyph glyph-name="afii10034" unicode="&#x420;" horiz-adv-x="1185" 
d="M102 0v139h129v1256h-129v141h732q136 0 182.5 -51t46.5 -203v-149q0 -28 -1.5 -50.5t-8 -43t-10.5 -33.5t-18.5 -29.5t-21 -24.5t-29.5 -23.5t-33 -22t-42 -26t-47 -28.5l-453 -283v-430h133v-139h-430zM399 733l514 318v344h-514v-662z" />
    <glyph glyph-name="afii10035" unicode="&#x421;" horiz-adv-x="1095" 
d="M123 219v1096q0 42 10 79.5t32 70.5t63 52t96 19h649v-379h-139v240h-543v-1258h543v240h139v-379h-629q-117 0 -169 60t-52 159z" />
    <glyph glyph-name="afii10036" unicode="&#x422;" horiz-adv-x="1083" 
d="M51 1155v381h981v-381h-149v242h-258v-1258h133v-139h-430v139h129v1258h-258v-242h-148z" />
    <glyph glyph-name="afii10037" unicode="&#x423;" horiz-adv-x="1220" 
d="M51 1397v139h357v-139h-107l307 -858l303 858h-137v139h395v-139h-108l-422 -1194q-36 -103 -90 -153t-148 -50h-114v139h178l67 191l-376 1067h-105z" />
    <glyph glyph-name="afii10038" unicode="&#x424;" horiz-adv-x="1374" 
d="M82 539v465q0 71 9.5 118.5t34.5 87t73.5 58t122.5 18.5h286v109h-137v139h430v-139h-137v-109h287q60 0 103.5 -13t70 -35.5t41.5 -59.5t20.5 -77.5t5.5 -96.5v-465q0 -144 -58.5 -203.5t-211.5 -59.5h-254v-137h141v-139h-434v139h133v137h-258q-151 0 -209.5 59.5
t-58.5 203.5zM248 418h360v733h-360v-733zM764 418h360v733h-360v-733z" />
    <glyph glyph-name="afii10039" unicode="&#x425;" horiz-adv-x="1208" 
d="M51 0v139h117l350 668l-309 590h-123v139h225l293 -565l297 565h221v-139h-121l-311 -590l354 -668h113v-139h-213l-338 639l-338 -639h-217z" />
    <glyph glyph-name="afii10040" unicode="&#x426;" horiz-adv-x="1361" 
d="M102 0v139h129v1258h-129v139h422v-139h-125v-1260h549v1260h-125v139h422v-139h-129v-1258h164v-446h-164v307h-1014z" />
    <glyph glyph-name="afii10041" unicode="&#x427;" horiz-adv-x="1253" 
d="M51 1397v139h426v-139h-133v-342l512 -322v664h-133v139h428v-139h-127v-1258h127v-139h-428v139h133v428l-448 283q-37 23 -49 30.5t-44 30t-44.5 35.5t-34 38.5t-30.5 48t-16.5 54t-7.5 66.5v244h-131z" />
    <glyph glyph-name="afii10042" unicode="&#x428;" horiz-adv-x="1902" 
d="M102 0v139h131v1258h-131v139h428v-139h-131v-1258h471v1258h-133v139h426v-139h-129v-1258h469v1258h-133v139h430v-139h-131v-1258h131v-139h-1698z" />
    <glyph glyph-name="afii10043" unicode="&#x429;" horiz-adv-x="1935" 
d="M102 0v139h131v1258h-131v139h428v-139h-131v-1258h471v1258h-133v139h426v-139h-129v-1258h469v1258h-133v139h430v-139h-131v-1258h164v-446h-164v307h-1567z" />
    <glyph glyph-name="afii10044" unicode="&#x42a;" horiz-adv-x="1337" 
d="M102 1157v379h654v-139h-144v-449l471 -297q99 -61 146 -132t47 -159v-118q0 -140 -42.5 -191t-152.5 -51h-766v139h129v1258h-202v-240h-140zM612 139h514v318l-514 323v-641z" />
    <glyph glyph-name="afii10045" unicode="&#x42b;" horiz-adv-x="1728" 
d="M102 0v139h129v1258h-129v139h441v-139h-144v-449l471 -297q99 -61 146 -132t47 -159v-118q0 -140 -42.5 -191t-152.5 -51h-766zM399 139h514v318l-514 323v-641zM1196 0v139h129v1258h-129v139h430v-139h-133v-1258h133v-139h-430z" />
    <glyph glyph-name="afii10046" unicode="&#x42c;" horiz-adv-x="1124" 
d="M102 0v139h129v1258h-129v139h441v-139h-144v-449l471 -297q99 -61 146 -132t47 -159v-118q0 -140 -42.5 -191t-152.5 -51h-766zM399 139h514v318l-514 323v-641z" />
    <glyph glyph-name="afii10047" unicode="&#x42d;" horiz-adv-x="1021" 
d="M82 0v379h147v-240h543v588h-465v137h465v533h-543v-240h-147v379h647q111 0 161 -51t50 -150v-1134q0 -85 -53.5 -143t-157.5 -58h-647z" />
    <glyph glyph-name="afii10048" unicode="&#x42e;" horiz-adv-x="1615" 
d="M102 0v139h129v1258h-129v139h430v-139h-133v-535h310v402q0 139 48 205.5t179 66.5h319q123 0 180.5 -67.5t57.5 -204.5v-985q0 -150 -50.5 -214.5t-176.5 -64.5h-314q-134 0 -188.5 63.5t-54.5 184.5v477h-310v-586h133v-139h-430zM872 139h457v1258h-457v-1258z" />
    <glyph glyph-name="afii10049" unicode="&#x42f;" horiz-adv-x="1333" 
d="M41 0v139h115l403 643q-31 19 -76.5 46.5t-66 40t-51.5 33t-43.5 32t-31 31.5t-24.5 36t-14 40t-10 50.5t-2 61.5v127q0 152 47 204t182 52h731v-139h-129v-1258h129v-139h-430v139h133v430l-217 133l-350 -563h110v-139h-405zM389 1051l514 -318v664h-514v-346z" />
    <glyph glyph-name="afii10065" unicode="&#x430;" horiz-adv-x="1019" 
d="M51 180v76q0 74 23 107.5t116 89.5l451 280v152h-401v-119h-131v258h512q100 0 144 -43.5t44 -132.5v-709h129v-139h-713q-103 0 -138.5 39t-35.5 141zM215 139h426v430l-426 -266v-164z" />
    <glyph glyph-name="afii10066" unicode="&#x431;" horiz-adv-x="964" 
d="M102 180v721q0 83 38 145.5t126 118.5l426 267v104h166v-61q0 -71 -38.5 -113t-129.5 -98l-422 -265v-184l307 193q57 36 119 36q71 0 119.5 -48.5t48.5 -110.5v-705q0 -89 -45 -135.5t-145 -46.5h-379q-191 0 -191 182zM268 137h428v783l-428 -267v-516z" />
    <glyph glyph-name="afii10067" unicode="&#x432;" horiz-adv-x="1028" 
d="M82 0v139h129v1258h-127v139h428q209 0 209 -182v-379l8 6q46 27 100 27q63 0 105.5 -46t42.5 -131v-651q0 -40 -7.5 -69.5t-26 -56t-56 -40.5t-92.5 -14h-713zM379 141h434v727l-434 -272v-455zM379 760l176 110v521h-176v-631z" />
    <glyph glyph-name="afii10068" unicode="&#x433;" horiz-adv-x="905" 
d="M102 0v137h134v742h-134v145h752v-336h-143v191h-320v-742h158v-137h-447z" />
    <glyph glyph-name="afii10069" unicode="&#x434;" horiz-adv-x="1095" 
d="M41 137h141l303 744h-141v143h561v-887h150v-418h-148v281h-723v-281h-143v418zM340 137h412v744h-111z" />
    <glyph glyph-name="afii10070" unicode="&#x435;" horiz-adv-x="952" 
d="M102 150v673q0 101 51 152t160 51h346q102 0 146.5 -40.5t44.5 -141.5v-191l-584 -368v-146h422v119h162v-108q0 -66 -40.5 -108t-123.5 -42h-420q-83 0 -123.5 42t-40.5 108zM266 451l420 264v170h-420v-434z" />
    <glyph glyph-name="afii10072" unicode="&#x436;" horiz-adv-x="1343" 
d="M51 0v139h96l285 404l-278 342h-101v139h144l397 -459v320h-131v139h418v-139h-131v-320l397 459h143v-139h-100l-279 -342l285 -404h96v-139h-157l-385 516v-377h131v-139h-418v139h131v377l-385 -516h-158z" />
    <glyph glyph-name="afii10073" unicode="&#x437;" horiz-adv-x="890" 
d="M102 0v299h138v-160h391v322h-283v135h264v287h-372v-158h-138v299h476q110 0 152 -45t42 -137v-160q0 -55 -34.5 -102t-100.5 -50q151 -3 151 -135v-215q0 -42 -5.5 -69.5t-22 -55.5t-53 -41.5t-93.5 -13.5h-512z" />
    <glyph glyph-name="afii10074" unicode="&#x438;" horiz-adv-x="1210" 
d="M92 0v143h131v738h-131v143h289v-750l446 750h291v-143h-131v-742h131v-139h-291v756l-448 -756h-287z" />
    <glyph glyph-name="afii10075" unicode="&#x439;" horiz-adv-x="1210" 
d="M92 0v143h131v738h-131v143h289v-750l446 750h291v-143h-131v-742h131v-139h-291v756l-448 -756h-287zM299 1427h109q2 -83 61.5 -142.5t144.5 -59.5q84 0 144.5 60t60.5 142h109q0 -130 -92.5 -221.5t-221.5 -91.5q-131 0 -223 92.5t-92 220.5z" />
    <glyph glyph-name="afii10076" unicode="&#x43a;" horiz-adv-x="1058" 
d="M92 0v139h131v746h-131v139h418v-139h-131v-320l467 459h160v-139h-113l-334 -342l342 -404h107v-139h-177l-444 516v-377h123v-139h-418z" />
    <glyph glyph-name="afii10077" unicode="&#x43b;" horiz-adv-x="1150" 
d="M51 0v137h160l287 744h-138v143h566v-887h133v-137h-424v137h135v744h-127l-262 -699q-34 -94 -82 -138t-133 -44h-115z" />
    <glyph glyph-name="afii10078" unicode="&#x43c;" horiz-adv-x="1458" 
d="M92 0v139h133v746h-133v139h367l270 -565l272 565h365v-139h-133v-746h133v-139h-428v139h141v740l-305 -635h-98l-297 624v-729h141v-139h-428z" />
    <glyph glyph-name="afii10079" unicode="&#x43d;" horiz-adv-x="1230" 
d="M92 0v139h131v742h-131v143h408v-143h-119v-279h467v279h-119v143h410v-143h-131v-742h131v-139h-410v139h119v316h-467v-316h119v-139h-408z" />
    <glyph glyph-name="afii10080" unicode="&#x43e;" horiz-adv-x="964" 
d="M102 182v660q0 90 41.5 136t149.5 46h379q106 0 148 -46.5t42 -135.5v-660q0 -89 -45 -135.5t-145 -46.5h-379q-191 0 -191 182zM268 139h428v746h-428v-746z" />
    <glyph glyph-name="afii10081" unicode="&#x43f;" horiz-adv-x="1200" 
d="M92 0v139h131v742h-131v143h1016v-143h-131v-742h131v-139h-410v139h119v742h-436v-742h119v-139h-408z" />
    <glyph glyph-name="afii10082" unicode="&#x440;" horiz-adv-x="1089" 
d="M92 883v141h297v-233l354 223q49 30 103 30q60 0 100.5 -35.5t40.5 -97.5v-718q0 -95 -38.5 -144t-145.5 -49h-414v-373h135v-139h-430v139h127v1256h-129zM389 139h434v760l-434 -272v-488z" />
    <glyph glyph-name="afii10083" unicode="&#x441;" horiz-adv-x="892" 
d="M102 180v664q0 88 49 135t146 47h494v-260h-140v119h-385v-746h385v119h140v-258h-510q-52 0 -88.5 14t-55.5 40t-27 56t-8 70z" />
    <glyph glyph-name="afii10084" unicode="&#x442;" horiz-adv-x="911" 
d="M51 688v336h809v-336h-139v191h-184v-740h159v-139h-481v139h160v740h-180v-191h-144z" />
    <glyph glyph-name="afii10085" unicode="&#x443;" horiz-adv-x="1083" 
d="M51 885v139h373v-139h-96l229 -701l209 701h-98v139h374v-139h-122l-361 -1215q-28 -95 -70.5 -138.5t-126.5 -43.5h-129v137h160l92 316l-309 944h-125z" />
    <glyph glyph-name="afii10086" unicode="&#x444;" horiz-adv-x="1277" 
d="M102 180v660q0 184 193 184h268v289h-147v141h448v-141h-147v-289h280q107 0 143 -45t36 -139v-660q0 -45 -5.5 -73.5t-23 -55t-55 -39t-97.5 -12.5h-278v-291h147v-139h-448v139h147v291h-268q-106 0 -149.5 47t-43.5 133zM256 137h307v742h-307v-742zM717 137h311v742
h-311v-742z" />
    <glyph glyph-name="afii10087" unicode="&#x445;" horiz-adv-x="1019" 
d="M51 0v139h115l258 391l-236 355h-120v139h196l250 -369l234 369h200v-139h-114l-236 -355l256 -391h115v-139h-193l-262 408l-260 -408h-203z" />
    <glyph glyph-name="afii10088" unicode="&#x446;" horiz-adv-x="1189" 
d="M92 0v143h131v742h-131v139h410v-139h-119v-742h436v742h-119v139h408v-139h-131v-742h151v-417h-147v274h-889z" />
    <glyph glyph-name="afii10089" unicode="&#x447;" horiz-adv-x="1122" 
d="M61 879v145h404v-145h-117v-441l391 244v197h-118v145h409v-145h-129v-742h129v-137h-420v137h129v385l-295 -188q-56 -35 -106 -35q-61 0 -104.5 40.5t-43.5 96.5v443h-129z" />
    <glyph glyph-name="afii10090" unicode="&#x448;" horiz-adv-x="1662" 
d="M92 0v145h131v734h-131v145h404v-145h-115v-734h371v734h-115v145h387v-145h-115v-734h373v734h-115v145h404v-145h-131v-734h131v-145h-1479z" />
    <glyph glyph-name="afii10091" unicode="&#x449;" horiz-adv-x="1671" 
d="M92 0v145h131v734h-131v145h404v-145h-115v-734h371v734h-115v145h387v-145h-115v-734h373v734h-115v145h404v-145h-131v-734h149v-417h-147v272h-1350z" />
    <glyph glyph-name="afii10092" unicode="&#x44a;" horiz-adv-x="1136" 
d="M61 688v336h588v-145h-137v-408l340 215q51 31 94 31q56 0 92.5 -39.5t36.5 -102.5v-395q0 -44 -5.5 -72t-22.5 -55t-55 -40t-97 -13h-676v145h131v734h-145v-191h-144zM512 139h401v420l-401 -252v-168z" />
    <glyph glyph-name="afii10093" unicode="&#x44b;" horiz-adv-x="1605" 
d="M92 0v145h133v734h-133v145h430v-145h-137v-408l340 215q51 31 94 31q56 0 92.5 -39.5t36.5 -102.5v-395q0 -44 -5.5 -72t-22.5 -55t-55 -40t-97 -13h-676zM385 139h401v420l-401 -252v-168zM1083 0v139h129v746h-129v139h430v-139h-133v-746h133v-139h-430z" />
    <glyph glyph-name="afii10094" unicode="&#x44c;" horiz-adv-x="1060" 
d="M102 0v145h131v734h-131v145h430v-145h-137v-408l340 215q51 31 94 31q56 0 92.5 -39.5t36.5 -102.5v-395q0 -44 -5.5 -72t-22.5 -55t-55 -40t-97 -13h-676zM395 139h402v420l-402 -252v-168z" />
    <glyph glyph-name="afii10095" unicode="&#x44d;" horiz-adv-x="890" 
d="M102 0v299h138v-160h391v322h-283v135h283v287h-391v-158h-138v299h494q110 0 151 -44.5t41 -137.5v-662q0 -42 -5.5 -69.5t-22 -55.5t-53 -41.5t-93.5 -13.5h-512z" />
    <glyph glyph-name="afii10096" unicode="&#x44e;" horiz-adv-x="1439" 
d="M92 0v139h131v742h-131v143h408v-143h-119v-279h258v240q0 90 41 136t149 46h318q106 0 148 -46.5t42 -135.5v-660q0 -89 -45 -135.5t-145 -46.5h-318q-100 0 -145 46.5t-45 135.5v273h-258v-316h119v-139h-408zM805 139h366v746h-366v-746z" />
    <glyph glyph-name="afii10097" unicode="&#x44f;" horiz-adv-x="1040" 
d="M31 0v137h129l219 338l-119 78q-33 21 -50 33.5t-38 35.5t-30 52.5t-9 68.5v121q0 81 55.5 120.5t139.5 39.5h628v-139h-127v-748h127v-137h-399v137h113v150l-170 110l-142 -215q-12 -18 -35.5 -57t-34 -53.5t-32 -35.5t-46.5 -28.5t-60 -7.5h-119zM287 684l383 -250
v451h-383v-201z" />
    <glyph glyph-name="afii10071" unicode="&#x451;" horiz-adv-x="952" 
d="M102 150v673q0 101 51 152t160 51h346q102 0 146.5 -40.5t44.5 -141.5v-191l-584 -368v-146h422v119h162v-108q0 -66 -40.5 -108t-123.5 -42h-420q-83 0 -123.5 42t-40.5 108zM238 1231q0 35 26.5 62.5t61.5 27.5q36 0 62 -27t26 -63q0 -38 -26 -64t-64 -26q-34 0 -60 26
t-26 64zM266 451l420 264v170h-420v-434zM541 1231q0 35 26.5 62.5t61.5 27.5q36 0 62 -27t26 -63q0 -38 -26 -64t-64 -26q-34 0 -60 26t-26 64z" />
    <glyph glyph-name="afii10099" unicode="&#x452;" horiz-adv-x="1159" 
d="M123 887v137h143v373h-129v139h297v-512h457v-137h-457v-236h363q109 0 174 -57.5t65 -187.5v-506q0 -92 -68 -148.5t-171 -56.5h-133v141h206v678h-436v-375h131v-139h-430v139h131v748h-143z" />
    <glyph glyph-name="afii10100" unicode="&#x453;" horiz-adv-x="905" 
d="M102 0v137h134v742h-134v145h752v-336h-143v191h-320v-742h158v-137h-447zM322 1145l219 252h145l-215 -252h-149z" />
    <glyph glyph-name="afii10101" unicode="&#x454;" horiz-adv-x="890" 
d="M102 180v662q0 93 41.5 137.5t151.5 44.5h493v-299h-137v158h-391v-287h283v-135h-283v-322h391v160h137v-299h-512q-57 0 -93.5 13.5t-53 41.5t-22 55.5t-5.5 69.5z" />
    <glyph glyph-name="afii10102" unicode="&#x455;" horiz-adv-x="899" 
d="M102 725v117q0 85 42.5 133.5t150.5 48.5h477v-307h-139v168h-369v-172l348 -217l45 -27t42 -25.5t32.5 -22t29 -24.5t19 -25t14 -30.5t3.5 -34.5v-127q0 -180 -176 -180h-496v309h139v-170h369v170l-336 211q-27 17 -71 43.5t-58.5 36.5t-34.5 30t-25.5 41.5t-5.5 53.5z
" />
    <glyph glyph-name="afii10103" unicode="&#x456;" horiz-adv-x="614" 
d="M102 0v139h129v746h-129v139h297v-885h133v-139h-430zM193 1190v207h206v-207h-206z" />
    <glyph glyph-name="afii10104" unicode="&#x457;" horiz-adv-x="614" 
d="M18 1196q0 35 26.5 62.5t61.5 27.5q36 0 62.5 -27t26.5 -63q0 -38 -26.5 -64t-64.5 -26q-34 0 -60 26t-26 64zM102 0v139h129v746h-129v139h297v-885h133v-139h-430zM322 1196q0 35 26.5 62.5t61.5 27.5q36 0 62 -27t26 -63q0 -38 -26 -64t-64 -26q-34 0 -60 26t-26 64z
" />
    <glyph glyph-name="afii10105" unicode="&#x458;" horiz-adv-x="540" 
d="M-20 -268h270v1153h-129v139h297v-1257q0 -89 -44.5 -133t-144.5 -44h-249v142zM211 1190v207h207v-207h-207z" />
    <glyph glyph-name="afii10106" unicode="&#x459;" horiz-adv-x="1609" 
d="M51 0v137h160l287 744h-138v143h707v-145h-137v-408l340 215q51 31 94 31q56 0 92.5 -39.5t36.5 -102.5v-395q0 -44 -5.5 -72t-22.5 -55t-55 -40t-97 -13h-678v137h133v744h-125l-262 -699q-34 -94 -82 -138t-133 -44h-115zM930 139h401v420l-401 -252v-168z" />
    <glyph glyph-name="afii10107" unicode="&#x45a;" horiz-adv-x="1634" 
d="M92 0v139h131v742h-131v143h408v-143h-119v-279h426v279h-119v143h418v-145h-137v-408l340 215q51 31 94 31q56 0 92.5 -39.5t36.5 -102.5v-395q0 -44 -5.5 -72t-22.5 -55t-55 -40t-97 -13h-664v139h119v316h-426v-316h119v-139h-408zM969 139h401v420l-401 -252v-168z
" />
    <glyph glyph-name="afii10108" unicode="&#x45b;" horiz-adv-x="1308" 
d="M172 885v139h154v373h-131v139h299v-512h432v-139h-432v-234h354q112 0 173.5 -48.5t61.5 -176.5v-287h134v-139h-422v139h129v375h-430v-375h129v-139h-426v139h129v746h-154z" />
    <glyph glyph-name="afii10109" unicode="&#x45c;" horiz-adv-x="1058" 
d="M92 0v139h131v746h-131v139h418v-139h-131v-320l467 459h160v-139h-113l-334 -342l342 -404h107v-139h-177l-444 516v-377h123v-139h-418zM369 1145l219 252h145l-215 -252h-149z" />
    <glyph glyph-name="afii10110" unicode="&#x45e;" horiz-adv-x="1083" 
d="M51 885v139h373v-139h-96l229 -701l209 701h-98v139h374v-139h-122l-361 -1215q-28 -95 -70.5 -138.5t-126.5 -43.5h-129v137h160l92 316l-309 944h-125zM227 1427h109q2 -83 62 -142.5t145 -59.5q84 0 144.5 60t60.5 142h108q0 -130 -92 -221.5t-221 -91.5
q-131 0 -223.5 92.5t-92.5 220.5z" />
    <glyph glyph-name="afii10193" unicode="&#x45f;" horiz-adv-x="1234" 
d="M121 0v143h131v742h-131v139h407v-139h-118v-742h436v742h-119v139h410v-139h-131v-742h131v-143h-435v-274h-147v274h-434z" />
    <glyph glyph-name="afii10050" unicode="&#x490;" horiz-adv-x="1060" 
d="M123 0v139h129v1258h-129v139h745v246h142v-385h-590v-1258h133v-139h-430z" />
    <glyph glyph-name="afii10098" unicode="&#x491;" horiz-adv-x="905" 
d="M102 0v137h134v742h-134v145h609v190h143v-335h-463v-742h158v-137h-447z" />
    <glyph glyph-name="uni2000" unicode="&#x2000;" horiz-adv-x="959" 
 />
    <glyph glyph-name="uni2001" unicode="&#x2001;" horiz-adv-x="1919" 
 />
    <glyph glyph-name="uni2002" unicode="&#x2002;" horiz-adv-x="959" 
 />
    <glyph glyph-name="uni2003" unicode="&#x2003;" horiz-adv-x="1919" 
 />
    <glyph glyph-name="uni2004" unicode="&#x2004;" horiz-adv-x="639" 
 />
    <glyph glyph-name="uni2005" unicode="&#x2005;" horiz-adv-x="479" 
 />
    <glyph glyph-name="uni2006" unicode="&#x2006;" horiz-adv-x="319" 
 />
    <glyph glyph-name="uni2007" unicode="&#x2007;" horiz-adv-x="319" 
 />
    <glyph glyph-name="uni2008" unicode="&#x2008;" horiz-adv-x="239" 
 />
    <glyph glyph-name="uni2009" unicode="&#x2009;" horiz-adv-x="383" 
 />
    <glyph glyph-name="uni200A" unicode="&#x200a;" horiz-adv-x="106" 
 />
    <glyph glyph-name="uni2010" unicode="&#x2010;" horiz-adv-x="923" 
d="M164 725v135h596v-135h-596z" />
    <glyph glyph-name="uni2011" unicode="&#x2011;" horiz-adv-x="923" 
d="M164 725v135h596v-135h-596z" />
    <glyph glyph-name="figuredash" unicode="&#x2012;" horiz-adv-x="923" 
d="M164 725v135h596v-135h-596z" />
    <glyph glyph-name="endash" unicode="&#x2013;" horiz-adv-x="1236" 
d="M164 725v135h909v-135h-909z" />
    <glyph glyph-name="emdash" unicode="&#x2014;" horiz-adv-x="1499" 
d="M164 725v135h1190v-135h-1190z" />
    <glyph glyph-name="quoteleft" unicode="&#x2018;" horiz-adv-x="362" 
d="M4 1044l154 492h151l-155 -492h-150z" />
    <glyph glyph-name="quoteright" unicode="&#x2019;" horiz-adv-x="362" 
d="M4 1044l154 492h151l-155 -492h-150z" />
    <glyph glyph-name="quotesinglbase" unicode="&#x201a;" horiz-adv-x="387" 
d="M20 -305l154 491h152l-156 -491h-150z" />
    <glyph glyph-name="quotedblleft" unicode="&#x201c;" horiz-adv-x="702" 
d="M4 1044l154 492h151l-155 -492h-150zM367 1044l153 492h152l-156 -492h-149z" />
    <glyph glyph-name="quotedblright" unicode="&#x201d;" horiz-adv-x="702" 
d="M4 1044l154 492h151l-155 -492h-150zM367 1044l153 492h152l-156 -492h-149z" />
    <glyph glyph-name="quotedblbase" unicode="&#x201e;" horiz-adv-x="749" 
d="M20 -307l154 491h152l-156 -491h-150zM383 -307l154 491h151l-156 -491h-149z" />
    <glyph glyph-name="bullet" unicode="&#x2022;" horiz-adv-x="847" 
d="M178 782q0 107 77 184t187 78q107 0 182.5 -76.5t75.5 -185.5q-2 -111 -76.5 -188.5t-181.5 -77.5q-109 0 -185.5 78t-78.5 188z" />
    <glyph glyph-name="ellipsis" unicode="&#x2026;" horiz-adv-x="1247" 
d="M82 96q0 42 31.5 74.5t72.5 32.5q42 0 72.5 -32.5t30.5 -74.5q0 -44 -30.5 -74t-74.5 -30q-41 0 -71.5 30.5t-30.5 73.5zM520 96q0 41 32 74t73 33q42 0 72 -32.5t30 -74.5q0 -44 -30 -74t-74 -30q-41 0 -72 30.5t-31 73.5zM958 96q0 41 32 74t73 33q42 0 72 -32.5
t30 -74.5q0 -44 -30 -74t-74 -30q-41 0 -72 30.5t-31 73.5z" />
    <glyph glyph-name="uni202F" unicode="&#x202f;" horiz-adv-x="383" 
 />
    <glyph glyph-name="guilsinglleft" unicode="&#x2039;" horiz-adv-x="514" 
d="M61 553l316 434l117 -82l-261 -352l261 -320l-113 -83z" />
    <glyph glyph-name="guilsinglright" unicode="&#x203a;" horiz-adv-x="514" 
d="M20 231l261 353l-261 319l113 84l320 -403l-316 -434z" />
    <glyph glyph-name="uni205F" unicode="&#x205f;" horiz-adv-x="479" 
 />
    <glyph glyph-name="Euro" unicode="&#x20ac;" horiz-adv-x="1157" 
d="M82 532v138h123v219h-123v137h123v289q0 42 10 79.5t32 70.5t63 52t96 19h649v-276h-140v137h-542v-371h508v-137h-508v-219h508v-138h-508v-393h542v131h140v-270h-629q-117 0 -169 60t-52 159v313h-123z" />
    <glyph glyph-name="trademark" unicode="&#x2122;" horiz-adv-x="1552" 
d="M41 1296v240h549v-240h-111v125h-100v-450h104v-111h-336v111h105v450h-96v-125h-115zM659 860v111h89v454h-89v111h256l170 -336l170 336h256v-111h-86v-454h86v-111h-299v111h91v413l-179 -360h-82l-176 356v-409h92v-111h-299z" />
    <glyph glyph-name="uniE000" unicode="&#xe000;" horiz-adv-x="1024" 
d="M0 0v1024h1024v-1024h-1024z" />
    </font>
</defs>
</svg>
